<?xml version="1.0" standalone="no"?>
<!DOCTYPE svg PUBLIC "-//W3C//DTD SVG 20010904//EN"
 "http://www.w3.org/TR/2001/REC-SVG-20010904/DTD/svg10.dtd">
<svg version="1.0" xmlns="http://www.w3.org/2000/svg"
 width="512.000000pt" height="512.000000pt" viewBox="0 0 512.000000 512.000000"
 preserveAspectRatio="xMidYMid meet">
<metadata>
Created by potrace 1.11, written by Peter Selinger 2001-2013
</metadata>
<g transform="translate(0.000000,512.000000) scale(0.100000,-0.100000)"
fill="#000000" stroke="none">
<path d="M2205 4931 c-16 -4 -48 -17 -70 -28 -31 -16 -69 -22 -165 -27 -420
-22 -786 -172 -1041 -426 -193 -191 -289 -402 -294 -640 -4 -223 72 -428 227
-609 116 -137 247 -235 433 -326 162 -79 277 -115 460 -146 97 -16 107 -17
165 -21 l55 -3 5 -1155 5 -1155 27 -50 c26 -50 71 -98 118 -127 62 -38 104
-39 1135 -36 999 3 1000 3 1046 24 60 28 122 90 151 151 l22 48 0 2155 0 2155
-24 50 c-34 69 -96 128 -161 153 -53 20 -67 21 -1059 20 -553 0 -1018 -3
-1035 -7z m2031 -171 c31 -12 73 -57 75 -80 7 -80 3 -4214 -4 -4243 -7 -27
-20 -45 -45 -62 l-36 -25 -986 0 c-919 0 -987 1 -1020 17 -75 38 -70 -44 -70
1210 0 618 4 1124 8 1124 4 1 19 3 33 4 l26 4 0 -847 c0 -466 3 -860 6 -874
15 -60 -24 -58 1017 -58 l952 0 29 29 29 29 0 1691 c0 969 -4 1700 -9 1713
-21 54 -26 54 -547 53 l-480 -1 -45 43 -44 43 318 0 318 0 24 25 c17 16 25 35
25 60 0 25 -8 44 -25 60 l-24 25 -355 0 c-374 0 -393 -2 -417 -46 -8 -15 -16
-21 -23 -15 -22 18 -113 65 -186 98 l-75 32 752 1 c496 0 761 -4 779 -10z
m-1976 -61 c112 -15 133 -19 215 -39 369 -87 683 -323 798 -600 119 -285 35
-603 -224 -845 -66 -62 -79 -103 -78 -244 0 -58 0 -144 0 -191 l-1 -85 -114
114 c-62 63 -124 120 -137 127 -51 27 -94 26 -220 -5 -150 -38 -154 -39 -243
-47 -133 -14 -333 -8 -466 12 -225 34 -474 138 -640 267 -88 69 -102 82 -164
157 -196 237 -234 528 -102 790 126 250 411 454 764 545 52 14 116 28 141 31
25 4 71 9 101 13 79 10 294 10 370 0z m1733 -429 l87 0 -2 -1582 -3 -1583
-842 -2 -843 -2 0 814 0 813 30 7 c16 4 32 6 35 6 2 0 44 11 92 24 l88 25 145
-145 c80 -79 158 -149 173 -155 44 -16 86 -12 124 11 63 39 67 56 68 325 l0
242 76 79 c191 200 280 417 274 668 -4 158 -31 251 -133 447 -4 8 227 14 418
11 69 -1 164 -3 213 -3z"/>
<path d="M3152 901 c-91 -31 -152 -95 -176 -187 -33 -125 29 -255 148 -310 74
-34 176 -29 242 12 95 58 140 148 131 259 -13 164 -188 279 -345 226z m156
-196 c32 -38 30 -89 -7 -126 -77 -76 -201 13 -153 110 30 63 112 70 160 16z"/>
<path d="M1301 4033 c-26 -9 -65 -36 -92 -63 -173 -173 -40 -467 204 -448 72
6 129 32 173 80 55 58 69 95 69 183 0 69 -4 86 -27 127 -69 116 -201 165 -327
121z m167 -189 c50 -57 4 -154 -72 -154 -92 0 -130 123 -53 171 43 26 94 19
125 -17z"/>
<path d="M1991 4038 c-90 -25 -164 -108 -183 -204 -42 -208 172 -380 363 -292
80 36 138 103 154 178 44 201 -138 375 -334 318z m147 -193 c33 -39 30 -89 -8
-127 -27 -27 -36 -30 -71 -25 -22 3 -49 13 -60 23 -46 41 -28 132 31 157 30
12 85 -2 108 -28z"/>
<path d="M2648 4035 c-56 -18 -130 -87 -154 -142 -22 -52 -26 -145 -9 -194 53
-148 217 -221 357 -157 121 56 180 172 154 302 -13 68 -73 143 -141 178 -51
27 -146 32 -207 13z m160 -190 c74 -86 -49 -207 -132 -130 -14 13 -26 28 -27
32 0 4 -2 17 -5 28 -17 85 105 137 164 70z"/>
</g>
</svg>
